<svg width="960" height="540" viewBox="0 0 960 540" fill="none" xmlns="http://www.w3.org/2000/svg">
  <rect width="960" height="540" rx="36" fill="#FFF8E9"/>
  <circle cx="117" cy="108" r="62" fill="#B8F2E6"/>
  <circle cx="844" cy="92" r="48" fill="#FFD166"/>
  <circle cx="832" cy="438" r="70" fill="#FFE0B2"/>
  <rect x="92" y="148" width="776" height="260" rx="32" fill="white" stroke="#DCE7EF" stroke-width="4"/>
  <rect x="132" y="208" width="156" height="136" rx="24" fill="#1F9AA5"/>
  <rect x="402" y="208" width="156" height="136" rx="24" fill="#FFD166"/>
  <rect x="672" y="208" width="156" height="136" rx="24" fill="#FF944D"/>
  <path d="M312 276H378" stroke="#17324D" stroke-width="10" stroke-linecap="round"/>
  <path d="M358 256L378 276L358 296" stroke="#17324D" stroke-width="10" stroke-linecap="round" stroke-linejoin="round"/>
  <path d="M582 276H648" stroke="#17324D" stroke-width="10" stroke-linecap="round"/>
  <path d="M628 256L648 276L628 296" stroke="#17324D" stroke-width="10" stroke-linecap="round" stroke-linejoin="round"/>
  <circle cx="210" cy="238" r="22" fill="white"/>
  <path d="M196 239L206 249L225 228" stroke="#1F9AA5" stroke-width="8" stroke-linecap="round" stroke-linejoin="round"/>
  <circle cx="480" cy="238" r="22" fill="white"/>
  <path d="M468 238H492" stroke="#FFD166" stroke-width="8" stroke-linecap="round"/>
  <path d="M480 226V250" stroke="#FFD166" stroke-width="8" stroke-linecap="round"/>
  <circle cx="750" cy="238" r="22" fill="white"/>
  <path d="M738 238H762" stroke="#FF944D" stroke-width="8" stroke-linecap="round"/>
  <text x="210" y="290" text-anchor="middle" fill="white" font-family="Nunito, sans-serif" font-size="28" font-weight="800">Girdi</text>
  <text x="480" y="290" text-anchor="middle" fill="#17324D" font-family="Nunito, sans-serif" font-size="28" font-weight="800">Islem</text>
  <text x="750" y="290" text-anchor="middle" fill="white" font-family="Nunito, sans-serif" font-size="28" font-weight="800">Cikti</text>
  <text x="480" y="412" text-anchor="middle" fill="#45607A" font-family="Nunito, sans-serif" font-size="30" font-weight="700">Adimlar dogru siralaninca sonuc duzenli olur.</text>
</svg>
